<svg width="38" height="44" viewBox="0 0 38 44" fill="none" xmlns="http://www.w3.org/2000/svg">
<path d="M20 2H20.546C27.066 2 30.33 2 32.594 3.596C33.242 4.052 33.818 4.596 34.304 5.206C36 7.338 36 10.406 36 16.546V21.636C36 27.562 36 30.526 35.062 32.892C33.554 36.698 30.366 39.698 26.322 41.118C23.808 42 20.662 42 14.362 42C10.766 42 8.966 42 7.53 41.496C5.22 40.684 3.398 38.97 2.536 36.796C2 35.444 2 33.75 2 30.364V22" stroke="#4F46E5" stroke-width="3" stroke-linecap="round" stroke-linejoin="round"/>
<path d="M36 22C36 23.7679 35.2977 25.4635 34.0476 26.7136C32.7975 27.9637 31.1019 28.666 29.334 28.666C28.002 28.666 26.432 28.434 25.138 28.78C24.5728 28.932 24.0575 29.2298 23.6437 29.6437C23.2298 30.0575 22.932 30.5728 22.78 31.138C22.434 32.432 22.666 34.002 22.666 35.334C22.666 36.2094 22.4936 37.0762 22.1586 37.885C21.8236 38.6937 21.3326 39.4286 20.7136 40.0476C20.0946 40.6666 19.3597 41.1576 18.551 41.4926C17.7422 41.8276 16.8754 42 16 42M4 7C4.984 5.988 7.6 2 9 2M9 2C10.4 2 13.016 5.988 14 7M9 2V18" stroke="#4F46E5" stroke-width="3" stroke-linecap="round" stroke-linejoin="round"/>
</svg>
