<svg width="20" height="24" viewBox="0 0 20 24" fill="none" xmlns="http://www.w3.org/2000/svg">
<path d="M10.5 2H10.773C14.033 2 15.665 2 16.797 2.798C17.121 3.026 17.409 3.298 17.652 3.603C18.5 4.669 18.5 6.203 18.5 9.273V11.818C18.5 14.781 18.5 16.263 18.031 17.446C17.277 19.349 15.683 20.849 13.661 21.559C12.404 22 10.831 22 7.681 22C5.883 22 4.983 22 4.265 21.748C3.11 21.342 2.199 20.485 1.768 19.398C1.5 18.722 1.5 17.875 1.5 16.182V12" stroke="#4F46E5" stroke-width="3" stroke-linecap="round" stroke-linejoin="round"/>
<path d="M18.5 12C18.5 12.884 18.1488 13.7317 17.5238 14.3568C16.8987 14.9818 16.051 15.333 15.167 15.333C14.501 15.333 13.716 15.217 13.069 15.39C12.7864 15.466 12.5288 15.6149 12.3218 15.8218C12.1149 16.0288 11.966 16.2864 11.89 16.569C11.717 17.216 11.833 18.001 11.833 18.667C11.833 19.1047 11.7468 19.5381 11.5793 19.9425C11.4118 20.3469 11.1663 20.7143 10.8568 21.0238C10.5473 21.3333 10.1799 21.5788 9.77548 21.7463C9.37111 21.9138 8.9377 22 8.5 22M2.5 4.5C2.992 3.994 4.3 2 5 2M5 2C5.7 2 7.008 3.994 7.5 4.5M5 2V10" stroke="#4F46E5" stroke-width="3" stroke-linecap="round" stroke-linejoin="round"/>
</svg>
